# xmcd
#
# Track frame offsets:
#	150
#	14209
#	26610
#	38355
#	57414
#	69780
#	84430
#	97271
#	110161
#	123706
#	135868
#	146974
#	159257
#	170798
#	182123
#	193664
#	209301
#	223383
#	238695
#	249215
#
# Disc length: 3533 seconds
# Revision: 0
# Processed by: cddbd v1.5.2PL0 Copyright (c) Steve Scherf et al.
# Submitted via: dBpowerAMP V12.0
#
DISCID=2a0dcb14
DTITLE=Ronny CD5 - Das Beste - Das große Lebenswerk
DYEAR=2016
DGENRE=Volkstümlich
TTITLE0=Tom Dooley
TTITLE1=Auf einem Seemannsgrab da blühen keine Rosen
TTITLE2=Little Sweetheart Belinda
TTITLE3=Jahre kommen und geh'n vorbei
TTITLE4=Dort am See im alten Garten
TTITLE5=Swanee River
TTITLE6=Sonnenschein auf allen Wegen
TTITLE7=Komm bald wieder
TTITLE8=Guter Mond, Du gehst so stille
TTITLE9=Es geht alles vorbei
TTITLE10=Cheerio
TTITLE11=Magdalena, Darling
TTITLE12=Old Charly (Heut' reiten wir zum letzten Mal) (Cool Water)
TTITLE13=Vaya con dios
TTITLE14=Ein Stern geht auf
TTITLE15=Ay, ay, ay (Cielito Lindo) 
TTITLE16=Ich denk' an Dich
TTITLE17=Good Night, Ladies
TTITLE18=Wir lagen vor Madagaskar
TTITLE19=Lu la lu
EXTD=
EXTT0=
EXTT1=
EXTT2=
EXTT3=
EXTT4=
EXTT5=
EXTT6=
EXTT7=
EXTT8=
EXTT9=
EXTT10=
EXTT11=
EXTT12=
EXTT13=
EXTT14=
EXTT15=
EXTT16=
EXTT17=
EXTT18=
EXTT19=
PLAYORDER=
